<svg width="161" height="109" viewBox="0 0 161 109" fill="none" xmlns="http://www.w3.org/2000/svg">
<path d="M35.2188 0H5.03125C3.66862 0 2.48942 0.431458 1.49365 1.29438C0.497884 2.15729 0 3.17917 0 4.36V30.52C0 31.7008 0.497884 32.7227 1.49365 33.5856C2.48942 34.4485 3.66862 34.88 5.03125 34.88C6.39388 34.88 7.57308 34.4485 8.56885 33.5856C9.56462 32.7227 10.0625 31.7008 10.0625 30.52V8.72H35.2188C36.5814 8.72 37.7606 8.28854 38.7563 7.42563C39.7521 6.56271 40.25 5.54083 40.25 4.36C40.25 3.17917 39.7521 2.15729 38.7563 1.29438C37.7606 0.431458 36.5814 0 35.2188 0ZM155.969 74.12C154.606 74.12 153.427 74.5515 152.431 75.4144C151.435 76.2773 150.938 77.2992 150.938 78.48V100.28H125.781C124.419 100.28 123.239 100.711 122.244 101.574C121.248 102.437 120.75 103.459 120.75 104.64C120.75 105.821 121.248 106.843 122.244 107.706C123.239 108.569 124.419 109 125.781 109H155.969C157.331 109 158.511 108.569 159.506 107.706C160.502 106.843 161 105.821 161 104.64V78.48C161 77.2992 160.502 76.2773 159.506 75.4144C158.511 74.5515 157.331 74.12 155.969 74.12ZM35.2188 100.28H10.0625V78.48C10.0625 77.2992 9.56462 76.2773 8.56885 75.4144C7.57308 74.5515 6.39388 74.12 5.03125 74.12C3.66862 74.12 2.48942 74.5515 1.49365 75.4144C0.497884 76.2773 0 77.2992 0 78.48V104.64C0 105.821 0.497884 106.843 1.49365 107.706C2.48942 108.569 3.66862 109 5.03125 109H35.2188C36.5814 109 37.7606 108.569 38.7563 107.706C39.7521 106.843 40.25 105.821 40.25 104.64C40.25 103.459 39.7521 102.437 38.7563 101.574C37.7606 100.711 36.5814 100.28 35.2188 100.28ZM155.969 0H125.781C124.419 0 123.239 0.431458 122.244 1.29438C121.248 2.15729 120.75 3.17917 120.75 4.36C120.75 5.54083 121.248 6.56271 122.244 7.42563C123.239 8.28854 124.419 8.72 125.781 8.72H150.938V30.52C150.938 31.7008 151.435 32.7227 152.431 33.5856C153.427 34.4485 154.606 34.88 155.969 34.88C157.331 34.88 158.511 34.4485 159.506 33.5856C160.502 32.7227 161 31.7008 161 30.52V4.36C161 3.17917 160.502 2.15729 159.506 1.29438C158.511 0.431458 157.331 0 155.969 0Z" fill="black"/>
</svg>
