<svg width="124" height="132" viewBox="0 0 124 132" fill="none" xmlns="http://www.w3.org/2000/svg">
<path d="M62 9.86598C90.9476 9.86598 114.632 35.1263 114.632 66C114.632 96.8737 90.9476 122.134 62 122.134C33.0525 122.134 9.36817 96.8737 9.36817 66C9.36817 35.1263 33.0525 9.86598 62 9.86598ZM62 0.510315C28.2279 0.510315 0.596191 29.9807 0.596191 66C0.596191 102.019 28.2279 131.49 62 131.49C95.7722 131.49 123.404 102.019 123.404 66C123.404 29.9807 95.7722 0.510315 62 0.510315Z" fill="black"/>
<path d="M104.242 61.1521H67.2803V27.2165H56.7198V61.1521H19.7583V70.8479H56.7198V104.784H67.2803V70.8479H104.242V61.1521Z" fill="black"/>
</svg>
