<svg width="118" height="125" viewBox="0 0 118 125" fill="none" xmlns="http://www.w3.org/2000/svg">
<path d="M74.3989 5.35328e-06C66.1 -0.00413134 57.9766 2.38925 51.0056 6.89232C44.0346 11.3954 38.513 17.8164 35.1046 25.3831C31.6963 32.9498 30.5464 41.3401 31.7934 49.5448C33.0403 57.7495 36.6309 65.4193 42.1333 71.6318L0 119.456L5.84749 124.677L47.8764 77.0616C53.2825 81.2903 59.6208 84.166 66.3634 85.4492C73.1059 86.7324 80.0574 86.386 86.6389 84.4387C93.2205 82.4914 99.2414 78.9998 104.2 74.2545C109.159 69.5092 112.913 63.6477 115.148 57.1583C117.383 50.6688 118.035 43.7393 117.049 36.9468C116.064 30.1544 113.47 23.6956 109.483 18.1086C105.497 12.5216 100.233 7.96804 94.1301 4.82723C88.0274 1.68643 81.2625 0.0493022 74.3989 0.0522151V5.35328e-06ZM74.3989 78.3147C65.0523 78.3147 56.0884 74.6017 49.4794 67.9926C42.8703 61.3836 39.1573 52.4197 39.1573 43.0731C39.1573 33.7264 42.8703 24.7626 49.4794 18.1535C56.0884 11.5444 65.0523 7.83147 74.3989 7.83147C83.7456 7.83147 92.7094 11.5444 99.3185 18.1535C105.928 24.7626 109.641 33.7264 109.641 43.0731C109.641 52.4197 105.928 61.3836 99.3185 67.9926C92.7094 74.6017 83.7456 78.3147 74.3989 78.3147Z" fill="black"/>
</svg>
